#!OML:ASF E:\emotionWalksFemale\Project 1\Capture day 1\Session 1\Female1.ASF
:FULLY-SPECIFIED
:DEGREES
583
root 9.38127 15.195 -21.6293 178.873 -9.87763 -183.584
lowerback 7.40918 -0.181489 -4.41142
upperback -4.14829 -0.841038 -0.394095
thorax -8.50934 -0.202109 2.18936
lowerneck -9.88235 -4.22521 -9.13986
upperneck 24.9188 -8.52003 9.9377
head 10.365 -4.39905 3.9395
rclavicle 2.25372e-014 5.26779e-015
rhumerus -45.0758 1.30065 -79.9397
rradius 32.6926
rwrist 14.4128
rhand -0.0294961 -53.2546
rfingers 7.12502
rthumb 25.5621 -81.5594
lclavicle 2.25372e-014 5.26779e-015
lhumerus -39.9648 -10.3935 95.0862
lradius 46.3356
lwrist -3.90286
lhand -7.99544 -36.5717
lfingers 7.12502
lthumb 17.9132 -7.37665
rfemur -25.9502 30.4755 9.94791
rtibia 18.7656
rfoot -25.9543 -43.4587
rtoes 2.79879
lfemur 18.8807 -12.5991 -33.7292
ltibia 12.8835
lfoot -15.2963 4.76753
ltoes -3.95608
584
root 9.39736 15.1894 -21.7867 178.863 -10.0746 -183.499
lowerback 7.22306 -0.171457 -4.34249
upperback -4.16885 -0.811805 -0.384581
thorax -8.42479 -0.194037 2.15443
lowerneck -9.84791 -4.26458 -9.21081
upperneck 25.0701 -8.63006 10.0036
head 10.4324 -4.46034 3.96258
rclavicle 4.69629e-015 1.39149e-015
rhumerus -45.2374 1.13109 -79.8438
rradius 32.8473
rwrist 14.185
rhand 4.97836e-005 -53.5076
rfingers 7.12502
rthumb 25.5904 -81.8083
lclavicle 4.69629e-015 1.39149e-015
lhumerus -40.3883 -9.67739 94.9333
lradius 45.0937
lwrist -4.59641
lhand -7.8608 -36.5084
lfingers 7.12502
lthumb 18.0428 -7.32525
rfemur -25.0302 29.6119 10.9116
rtibia 18.804
rfoot -25.146 -42.8113
rtoes 3.24096
lfemur 19.1832 -12.3308 -33.3775
ltibia 13.3511
lfoot -15.1413 4.3104
ltoes -6.31024
585
root 9.41027 15.1836 -21.9478 178.826 -10.1685 -183.576
lowerback 7.01261 -0.102243 -4.37449
upperback -4.12386 -0.717098 -0.459159
thorax -8.26012 -0.153603 2.07755
lowerneck -10.0472 -4.32413 -9.0968
upperneck 25.3375 -8.73358 9.86764
head 10.5705 -4.5096 3.87782
rclavicle -1.99903e-014 2.98177e-016
rhumerus -45.3266 0.826226 -79.7403
rradius 32.897
rwrist 14.2871
rhand -0.134573 -53.5934
rfingers 7.12502
rthumb 25.4615 -81.9126
lclavicle -1.99903e-014 2.98177e-016
lhumerus -40.5734 -9.11861 94.6853
lradius 43.4957
lwrist -5.30871
lhand -7.83595 -36.7402
lfingers 7.12502
lthumb 18.0667 -7.55926
rfemur -24.2377 29.0689 11.5987
rtibia 18.972
rfoot -24.9661 -42.3676
rtoes 3.75408
lfemur 19.6292 -12.0565 -33.2674
ltibia 13.7049
lfoot -14.8554 3.90803
ltoes -7.02823
586
root 9.42815 15.1848 -22.1082 178.865 -10.2679 -183.478
lowerback 6.83409 -0.0504488 -4.36254
upperback -4.15364 -0.637279 -0.426212
thorax -8.19314 -0.116256 2.09312
lowerneck -10.2665 -4.37278 -9.02952
upperneck 25.6113 -8.79832 9.70415
head 10.7119 -4.54608 3.79571
rclavicle 4.4975e-015 -7.65321e-015
rhumerus -45.3592 0.674738 -79.6404
rradius 32.7919
rwrist 14.3896
rhand -0.33041 -53.4427
rfingers 7.12502
rthumb 25.2739 -81.7886
lclavicle 4.4975e-015 -7.65321e-015
lhumerus -40.9087 -8.28618 94.3195
lradius 41.9473
lwrist -6.3528
lhand -7.70786 -37.0289
lfingers 7.12502
lthumb 18.1899 -7.8594
rfemur -23.9618 29.7431 11.9659
rtibia 19.3401
rfoot -25.2233 -43.1336
rtoes 4.46137
lfemur 20.0278 -11.7879 -32.8983
ltibia 13.867
lfoot -14.2639 3.45382
ltoes -8.03873
587
root 9.444 15.1951 -22.2697 178.879 -10.4946 -183.313
lowerback 6.45373 -0.130703 -4.40136
upperback -4.12919 -0.716154 -0.282606
thorax -7.9369 -0.154069 2.27315
lowerneck -10.1453 -4.30805 -8.78998
upperneck 25.6442 -8.68875 9.40416
head 10.6618 -4.51051 3.66282
rclavicle 4.55962e-015 1.2424e-014
rhumerus -45.2626 0.791935 -79.5561
rradius 32.6104
rwrist 14.4186
rhand -0.461811 -53.2239
rfingers 7.12502
rthumb 25.148 -81.5875
lclavicle 4.55962e-015 1.2424e-014
lhumerus -41.2082 -7.00309 93.8086
lradius 40.4854
lwrist -7.61467
lhand -7.50671 -37.0791
lfingers 7.12502
lthumb 18.3834 -7.92779
rfemur -23.7906 30.8668 12.1827
rtibia 19.7725
rfoot -25.6309 -44.1889
rtoes 5.19318
lfemur 20.3746 -11.5576 -32.4256
ltibia 14.1231
lfoot -13.8181 2.89002
ltoes -9.47024
588
root 9.45121 15.2086 -22.4226 178.926 -10.7741 -183.228
lowerback 6.65899 -0.142071 -4.10121
upperback -4.40746 -0.734579 -0.32439
thorax -8.35886 -0.172704 2.06733
lowerneck -9.8346 -4.31486 -9.2726
upperneck 25.8865 -8.86094 9.84746
head 10.7524 -4.62894 3.89133
rclavicle -5.09386e-015 -3.08116e-015
rhumerus -45.6849 0.71923 -79.4682
rradius 32.5003
rwrist 14.5294
rhand -0.499213 -53.0682
rfingers 7.12502
rthumb 25.1121 -81.4368
lclavicle -5.09386e-015 -3.08116e-015
lhumerus -41.8017 -5.71326 93.1763
lradius 39.0097
lwrist -9.13593
lhand -7.14424 -36.8432
lfingers 7.12502
lthumb 18.7321 -7.72513
rfemur -23.5249 31.6257 12.3226
rtibia 19.9972
rfoot -25.7571 -44.6368
rtoes 8.4294
lfemur 20.4086 -11.3327 -32.0626
ltibia 14.8524
lfoot -13.2245 2.27169
ltoes -8.9786
589
root 9.46136 15.2186 -22.5698 178.916 -10.9963 -182.889
lowerback 6.83872 -0.138103 -3.5848
upperback -4.5877 -0.690476 -0.290124
thorax -8.66448 -0.17382 1.81075
lowerneck -9.76157 -4.32649 -9.52888
upperneck 26.1478 -8.9868 10.0853
head 10.8736 -4.70878 4.00898
rclavicle 2.17421e-014 6.65929e-015
rhumerus -45.8475 0.678515 -79.4089
rradius 32.2602
rwrist 14.5954
rhand -0.692259 -52.8287
rfingers 7.12502
rthumb 24.9271 -81.223
lclavicle 2.17421e-014 6.65929e-015
lhumerus -42.1448 -4.29611 92.354
lradius 37.4185
lwrist -10.9828
lhand -6.64007 -36.3382
lfingers 7.12502
lthumb 19.217 -7.26764
rfemur -23.0773 32.2013 12.8617
rtibia 19.9508
rfoot -25.3655 -44.6691
rtoes 12.503
lfemur 20.1719 -11.023 -31.3925
ltibia 16.0801
lfoot -11.9838 1.6661
ltoes -8.94236
590
root 9.47703 15.2365 -22.7238 178.823 -11.251 -182.308
lowerback 6.81748 -0.173485 -3.03044
upperback -4.64523 -0.665928 -0.139188
thorax -8.71605 -0.187804 1.65595
lowerneck -9.79167 -4.35432 -9.56586
upperneck 26.3465 -9.09044 10.1411
head 10.9712 -4.76409 4.02248
rclavicle -2.20278e-014 -3.97569e-015
rhumerus -45.74 0.692911 -79.3965
rradius 31.8848
rwrist 14.51
rhand -0.948669 -52.7847
rfingers 7.12502
rthumb 24.6814 -81.2129
lclavicle -2.20278e-014 -3.97569e-015
lhumerus -42.4 -2.95292 91.4371
lradius 35.8314
lwrist -12.8872
lhand -6.29036 -36.0748
lfingers 7.12502
lthumb 19.5532 -7.03808
rfemur -22.306 32.1357 13.9529
rtibia 19.6723
rfoot -23.9139 -44.3443
rtoes 13.8914
lfemur 19.7375 -10.7401 -30.403
ltibia 17.7129
lfoot -10.5305 1.02263
ltoes -9.50767
591
root 9.49239 15.2676 -22.8826 178.79 -11.5775 -181.807
lowerback 6.57583 -0.258146 -2.61282
upperback -4.62336 -0.711922 0.0276163
thorax -8.5477 -0.231624 1.60137
lowerneck -9.74014 -4.34063 -9.46686
upperneck 26.4045 -9.10603 10.1011
head 10.9775 -4.77244 3.98978
rclavicle 3.12837e-014 1.88845e-015
rhumerus -45.4818 0.801098 -79.4121
rradius 31.5137
rwrist 14.4155
rhand -1.04747 -52.9477
rfingers 7.12502
rthumb 24.5867 -81.3888
lclavicle 3.12837e-014 1.88845e-015
lhumerus -42.5591 -1.47412 90.3856
lradius 34.2848
lwrist -14.9307
lhand -5.66462 -35.808
lfingers 7.12502
lthumb 20.1547 -6.83355
rfemur -21.3686 31.6065 15.0528
rtibia 19.1825
rfoot -22.1137 -43.721
rtoes 14.4451
lfemur 19.0248 -10.5013 -29.4548
ltibia 19.6462
lfoot -9.31895 0.369843
ltoes -7.88184
592
root 9.50574 15.2954 -23.0367 178.669 -11.8485 -181.331
lowerback 6.25767 -0.326261 -2.11715
upperback -4.4223 -0.721667 0.154605
thorax -8.14409 -0.264236 1.45225
lowerneck -9.92564 -4.37838 -9.47807
upperneck 26.5454 -9.19034 10.172
head 11.0826 -4.79994 4.0038
rclavicle -7.36746e-015 -4.57205e-015
rhumerus -44.958 0.625574 -79.2803
rradius 31.1209
rwrist 14.8886
rhand -0.886142 -52.9314
rfingers 7.12502
rthumb 24.7413 -81.3514
lclavicle -7.36746e-015 -4.57205e-015
lhumerus -42.3981 0.207719 89.1415
lradius 32.7378
lwrist -17.3585
lhand -4.4552 -35.1322
lfingers 7.12502
lthumb 21.3168 -6.28458
rfemur -20.2532 30.791 16.2125
rtibia 18.5278
rfoot -19.9703 -42.7439
rtoes 15.359
lfemur 18.3103 -10.0569 -28.5172
ltibia 21.7433
lfoot -8.30451 -0.100028
ltoes -7.99688
593
root 9.51896 15.3155 -23.1898 178.422 -11.985 -180.82
lowerback 6.70499 -0.319778 -1.57603
upperback -4.64243 -0.667287 0.265937
thorax -8.64994 -0.260511 1.2664
lowerneck -10.0356 -4.41567 -9.61384
upperneck 27.2073 -9.41569 10.222
head 11.3938 -4.94472 4.01654
rclavicle 1.39274e-014 6.06293e-015
rhumerus -45.214 0.32945 -79.007
rradius 30.8895
rwrist 15.8476
rhand -0.237352 -53.1042
rfingers 7.12502
rthumb 25.363 -81.4374
lclavicle 1.39274e-014 6.06293e-015
lhumerus -43.0946 1.71398 87.8298
lradius 31.5205
lwrist -19.673
lhand -2.93933 -34.5024
lfingers 7.12502
lthumb 22.7722 -5.82649
rfemur -19.0524 29.762 17.5074
rtibia 17.8814
rfoot -17.4615 -41.5477
rtoes 16.2376
lfemur 17.7226 -9.39815 -27.553
ltibia 23.8878
lfoot -7.06946 -0.425235
ltoes -9.77689
594
root 9.5336 15.3381 -23.3447 178.204 -12.0804 -180.372
lowerback 6.50754 -0.346809 -1.2838
upperback -4.42087 -0.643629 0.458154
thorax -8.29442 -0.260295 1.29692
lowerneck -10.517 -4.45301 -9.38745
upperneck 27.5128 -9.4339 9.96664
head 11.5875 -4.93693 3.87199
rclavicle -5.03546e-014 -1.07344e-014
rhumerus -44.6602 0.207616 -78.8076
rradius 30.5369
rwrist 16.564
rhand 0.210999 -53.3949
rfingers 7.12502
rthumb 25.7925 -81.6665
lclavicle -5.03546e-014 -1.07344e-014
lhumerus -43.1753 3.24406 86.535
lradius 30.5035
lwrist -21.8749
lhand -1.23984 -33.8859
lfingers 7.12502
lthumb 24.4023 -5.41985
rfemur -17.9622 28.7542 18.7173
rtibia 17.4185
rfoot -15.6963 -40.5541
rtoes 17.3706
lfemur 17.0433 -8.77448 -26.6469
ltibia 26.0413
lfoot -5.39307 -0.819178
ltoes -8.44132
